<svg viewBox="0 0 380 284" xmlns="http://www.w3.org/2000/svg" fill-rule="evenodd" clip-rule="evenodd" stroke-linejoin="round" stroke-miterlimit="2"><g fill="#231f20" fill-rule="nonzero"><path d="M203.167 122.858c-6.371-2.983-3.7-13.987-3.671-14.1l.075-.295-.308-.046c-.138-.025-14.575-3.104-16.955-18.292-1.7-10.88-8.57-12.504-12.516-12.504-.871 0-1.563.08-1.98.15.409-1.408 2.142-6.07 7.596-7.158a16.98 16.98 0 013.209-.33c8.487 0 11.187 7.613 12.354 10.863.096.304.192.558.275.762 2.537 6.467 8.762 13.642 9.433 13.642h.171l.096-.162c.083-.171.067-.321-.53-1.117-6.608-8.933-3.024-18.046-2.987-18.133 6.725-6 8.63-9.871 7.48-15.225-2.026-9.388-12.305-17.625-16.692-21.142l-.738-.596c-4.12-3.337-.646-12.808-.154-14.092a12.95 12.95 0 011.975-.158c3.338 0 6.35 1.396 8.954 4.163 8.25 8.75 10.088 28.604 9.959 32.204-.071 1.916.016 3.316.604 3.316.429 0 .737-.791.958-1.625 2.117-7.795-4.75-29.429-5.07-30.404-1.25-4.196-1.326-7.404-.259-10.091 2.637-6.534 9.275-11.742 11.57-13.392-3.312 7.85-3.287 10.712-3.1 35.708l.01 1.388c.724 27.12-10.963 32.179-11.076 32.237l-.162.067v.17c-.196 11.126 7.233 16.434 7.316 16.484l.138.096.146-.08c.104-.045 9.716-5.316 14.225-16.378l.091-.225-.204-.121c-.1-.059-8.766-5.692 2.684-32.138l.62-1.433C237.617 19.675 238.763 17 238.763 8.975c1.5 1.542 6.079 6.792 5.925 13.4-.063 2.688-1.521 5.904-4.575 10.13-.721.966-17.188 22.883-17.83 30.987-.054.758.163 1.141.4 1.141.421 0 .53-.033 1.7-3.233 1.296-3.55 18.246-36.475 34.505-36.475.604 0 1.212.042 1.808.142-.075 1.6-.725 10.775-6.208 14.083l-.996.596c-5.867 3.508-19.621 11.729-25.608 21.075-3.425 5.354-3.159 9.233 1.075 15.37-.059 0-.4 9.097-10.809 18.034-.975.842-.991.938-.929 1.133l.075.184.204.008c.659 0 9.846-7.137 15.113-13.567.162-.204.366-.462.6-.762 2.337-2.996 8.537-10.938 17.091-10.938 1 0 2.025.113 3.042.33 1.68.366 2.913 1.162 3.67 2.362 1.15 1.808.913 4.05.793 4.813a11.774 11.774 0 00-2.046-.167c-3.921 0-11.417 1.612-17.7 12.408-8.871 15.271-24.704 18.363-24.863 18.388l-.2.025-.033.2c-.017.112-2.042 11.208-9.8 14.216z"/><path d="M209.859 91.375c-.63-.262-4.859-2.4-5.021-12.017.916-.725 7.079-5.854 9.212-14.141 1.538-5.984 1.409-13.142 1.267-20.709-.283-15.358-.583-32.758 13.892-43.67 9.733 10.866 2.037 28.233-4.759 43.562-3.354 7.57-6.52 14.72-7.529 20.704-1.367 8.142 2.45 13.267 3.192 14.171-4.313 9.717-9.53 11.85-10.254 12.1zm-15.934-10.15c-.425-.933-.833-1.917-1.262-2.946-2.988-7.141-6.371-15.233-18.73-15.596l-.604-.008c-12.108 0-14.646 11.254-15.137 14.65-4.33-8.62-9.413-23.93 3.679-31.637 4.9-2.884 9.854-4.35 14.717-4.35 7.966 0 14.07 3.85 17.8 7.075 3.554 3.075 8.12 9.333 8.12 16.095 0 3.996-4.279 7.725-6.67 9.788-1.509 2.712-1.85 5.396-1.913 6.93zm36.367-.167c.587-1.587.992-6.316.992-6.316s-1.384-2.117-2.521-4.546a6.888 6.888 0 01-.563-3.63c.7-5.5 9.675-14.412 15.554-18.128 5.117-3.238 12.896-7.1 20.88-7.1 4.85 0 9.162 1.458 12.816 4.333 2.225 1.746 3.454 4.008 3.663 6.737.341 4.321-1.734 12.121-13.442 24.78.642-2.33 1.658-7.525-.8-11.055-1.6-2.295-4.383-3.458-8.292-3.458l-.608.008c-12.446.363-19.242 8.417-25.237 15.521-.821.98-1.638 1.934-2.442 2.854zm-82.896 122.775c-8.896 0-15.854-2.775-20.113-8.02-4.708-5.805-6.037-14.396-3.837-24.875 4.008-19.18 18.692-32.575 35.683-32.575 8.796 0 15.334 2.316 19.404 6.875 3.746 4.191 5.292 10.141 4.609 17.679a1.401 1.401 0 01-1.392 1.266h-15.754a1.4 1.4 0 01-1.008-.437 1.463 1.463 0 01-.384-1.042c.15-2.679-.454-4.858-1.741-6.316-1.317-1.496-3.425-2.288-6.092-2.288-6.642 0-11.625 6.275-14.008 17.671-.913 4.346-1.813 10.508.87 13.812 1.359 1.667 3.575 2.513 6.592 2.513 6.454 0 9.68-5.167 11.254-9.504a1.39 1.39 0 011.304-.921h15.896c.45 0 .871.22 1.134.596.258.366.333.829.179 1.258-5.28 14.992-17.763 24.308-32.596 24.308zm200.196-1.625a1.403 1.403 0 01-1.375-1.675l3.687-17.537c1.188-5.683 2.696-11.233 4.305-16.85l-17.242 35.28a1.412 1.412 0 01-1.254.782H323.52a1.396 1.396 0 01-1.392-1.295l-2.579-34.692c-.579 5.054-1.408 10.97-2.229 14.862l-4.183 20.009a1.414 1.414 0 01-1.375 1.116h-15.725a1.38 1.38 0 01-1.071-.52 1.348 1.348 0 01-.288-1.155l12.45-59.441a1.39 1.39 0 011.363-1.109h22.183c.734 0 1.334.567 1.384 1.3l2.512 36.105 17.87-36.621a1.412 1.412 0 011.255-.784h22.063c.425 0 .812.192 1.083.517.267.325.367.758.275 1.167l-12.442 59.425a1.396 1.396 0 01-1.358 1.116h-15.725zm-106.962 0c-.417 0-.817-.195-1.084-.52a1.399 1.399 0 01-.28-1.155l12.447-59.441a1.406 1.406 0 011.366-1.109h47.305a1.4 1.4 0 011.091.517c.263.325.367.758.284 1.167l-2.571 12.262a1.397 1.397 0 01-1.359 1.109h-30.85l-1.733 8.275h27.8c.413 0 .813.187 1.07.512.272.33.376.75.288 1.158l-2.57 12.275a1.402 1.402 0 01-1.363 1.105h-28.367l-1.854 8.791h30.117c.417 0 .812.192 1.075.521.258.325.375.746.275 1.163l-2.563 12.254a1.398 1.398 0 01-1.366 1.116h-47.159zm-24.88 0c-.425 0-.82-.195-1.083-.512a1.397 1.397 0 01-.283-1.163l4.612-22.17h-16.683l-4.738 22.729a1.395 1.395 0 01-1.367 1.116h-16.283a1.4 1.4 0 01-1.367-1.675l12.459-59.441a1.39 1.39 0 011.358-1.109h16.288c.42 0 .82.192 1.079.517.262.325.358.763.279 1.17l-4.633 21.613h16.7l4.746-22.195c.129-.642.7-1.105 1.358-1.105h16.3c.408 0 .808.192 1.075.517.27.325.367.758.283 1.167l-12.45 59.425a1.398 1.398 0 01-1.366 1.116H215.75z"/><path d="M73.242 202.208c-.417 0-.817-.195-1.075-.52a1.363 1.363 0 01-.292-1.155l12.45-59.441a1.4 1.4 0 011.367-1.109h47.82a1.4 1.4 0 011.3.921 1.39 1.39 0 01-.416 1.546c-3.963 3.304-7.396 7.321-10.213 11.921a1.38 1.38 0 01-1.187.667H99.583l-1.741 8.275h20.029c.446 0 .862.212 1.12.579.272.366.334.837.188 1.262-.675 2-1.212 3.938-1.629 5.934a58.853 58.853 0 00-.917 6.02 1.39 1.39 0 01-1.383 1.255H94.7l-1.846 8.791h22.817c.667 0 1.246.48 1.367 1.13.862 4.541 2.612 8.462 5.2 11.654a1.4 1.4 0 01.179 1.479 1.385 1.385 0 01-1.25.791H73.242zm2.496-46.341c.895-4.28.325-7.617-1.759-10.18-3.125-3.833-9.608-5.704-19.846-5.704H26c-.658 0-1.23.463-1.358 1.109l-12.454 59.441a1.4 1.4 0 001.358 1.675h28.283c17.754 0 27.684-6.154 30.338-18.816 1.425-6.854-1.163-12.363-6.642-14.275 2.67-1.638 8.708-6.054 10.213-13.25zm-22.942 25.929c-.838 3.754-3.863 5.358-10.08 5.358h-8.833l2.396-10.67h6.45c4.371 0 8.109.137 9.563 1.816.433.504.979 1.421.504 3.496zm2.654-22.308c-.708 3.2-3.758 5.104-8.137 5.104h-8.375l2.141-9.554h7.18c2.766 0 5.612 0 6.779 1.341.591.684.729 1.709.412 3.109zm296.459 99.492h-3.655l-9.004 11.52-4.85-11.52h-3.35l6.25 14.224-2.029 9.571h3.088l2.058-9.57 11.492-14.226zm-77.167 9.958c0-5.892-3.758-10.521-9.904-10.521-8.096 0-13.013 6.796-13.013 14.496 0 6.558 3.688 10.42 10.163 10.42 7.904 0 12.754-6.924 12.754-14.395zm-3.158 0c0 5.675-3.321 11.737-9.596 11.737-4.75 0-7.004-3.175-7.004-7.762 0-5.738 3.254-11.834 9.854-11.834 4.387 0 6.746 3.467 6.746 7.859zm-36.921 11.166h-12.525l4.387-21.125h-3.158l-4.971 23.796h15.696l.57-2.67zm-31.488-11.166c0-5.892-3.742-10.521-9.896-10.521-8.104 0-13.02 6.796-13.02 14.496 0 6.558 3.687 10.42 10.174 10.42 7.9 0 12.742-6.924 12.742-14.395zm-3.15 0c0 5.675-3.317 11.737-9.592 11.737-4.754 0-7.016-3.175-7.016-7.762 0-5.738 3.254-11.834 9.862-11.834 4.388 0 6.746 3.467 6.746 7.859zm-39.779 13.837l5.012-23.796h-3.054l-3.954 19.692h-.067l-8.47-19.692h-3.384l-5.012 23.796h3.05l4.02-19.566h.063l8.408 19.566h3.388zm-38.12 0l4.97-23.796h-3.146l-2.125 10.23h-12.42l2.166-10.23h-3.2l-4.98 23.796h3.16l2.287-10.9h12.425l-2.296 10.9h3.158zM85.4 266.646h3.15c0-5.504-3.917-8.23-9.03-8.23-8.103 0-13.02 6.797-13.02 14.497 0 6.558 3.688 10.42 10.167 10.42 5.841 0 9.3-3.262 10.496-8.591h-3.155c-1.033 3.696-3.458 5.933-7.341 5.933-4.754 0-7.009-3.175-7.009-7.762 0-5.738 3.259-11.834 9.863-11.834 3.454 0 5.88 1.83 5.88 5.567zm-33.342-5l.53-2.667H36.254l-5.012 23.796h16.496l.6-2.67H34.992l1.725-8.23h12.32l.538-2.666H37.288l1.587-7.563h13.183zm-32.975 0l.6-2.667H.558L0 261.646h7.958l-4.445 21.13H6.67l4.442-21.13h7.97zm341.538-43.887h-5.167l-3.662 18.304h-.07l-6.96-18.304h-5.82l-5.42 25.716h5.274l3.67-18.041h.068l7.029 18.041h5.641l5.417-25.716zm-39.2 10.408c0-7.2-4.442-11.017-11.383-11.017-8.642 0-14 7.234-14 15.559 0 7.241 4.208 11.379 11.387 11.379 8.975 0 13.996-7.454 13.996-15.921zm-5.63.4c0 4.867-2.766 10.775-8.295 10.775-4.092 0-5.817-3.108-5.817-6.633 0-4.938 2.621-10.809 8.396-10.809 4.138 0 5.717 3.063 5.717 6.667zm-37.19 14.908l5.42-25.716h-5.675l-5.42 25.716h5.674zm-15.155-20.962l1.008-4.754h-21.391l-1.013 4.754h8.042l-4.371 20.962h5.667l4.383-20.962h7.675zm-40.13 20.962h5.6l-4.27-25.716h-5.78l-15.145 25.716h5.958l3.23-5.729h9.579l.829 5.73zm-1.324-9.937h-6.863l5.53-10.23h.07l1.263 10.23zm-33.18-6.842h5.646c.142-6.267-4.345-9.546-10.266-9.546-8.654 0-14.004 7.234-14.004 15.559 0 7.241 4.2 11.379 11.375 11.379 5.575 0 9.445-2.704 11.741-9.867h-5.629c-.508 2.704-2.917 5.12-6.042 5.12-4.083 0-5.808-3.107-5.808-6.632 0-4.938 2.621-10.809 8.404-10.809 2.688 0 4.584 1.63 4.584 4.796zm-36.07 16.78l5.425-25.717h-5.68l-5.42 25.716h5.675zm-17.296-18.972c0-4.97-3.025-6.808-7.67-6.737h-12.293L110.08 243.5h5.659l2.125-10.058h4.629l3.679 10.058h6.062c-.3-.758-3.929-10.833-3.929-10.833 3.792-.567 7.142-4.663 7.142-8.163zm-5.654.834c0 2.879-2.85 4.033-5.842 4.075h-5.225l1.513-7.25h5.37c2.238 0 4.184.4 4.184 3.175zm-32.113-1.554c0-4.909-3.191-6.025-8.325-6.025H78.58l-5.38 25.716h13.67c5.138 0 9.8-2.837 9.8-8.429 0-2.483-1.357-4.575-3.807-5.217v-.075c3.016-.358 4.816-3.058 4.816-5.97zm-16.625 8.233h5.534c2.041 0 4.441.229 4.441 2.929 0 2.738-1.862 4.133-4.408 4.133h-7.075l1.508-7.062zm10.984-7.233c0 2.237-1.755 3.383-3.8 3.383h-6.396l1.262-6.013h5.959c1.829 0 2.975.692 2.975 2.63zm-32.517 7.925l3.117-14.95h-5.634L53.817 233c-.834 3.884-1.696 6.342-6.284 6.342-3.883 0-4.812-2.167-4.812-3.467 0-.829.358-2.408.537-3.237l3.117-14.88h-5.637l-3.117 14.88c-.254 1.258-.546 2.52-.546 3.816 0 5.621 5.104 7.634 10.1 7.634 7.958 0 10.808-3.988 12.346-11.38zm-36.508 6.016H10.625l4.388-20.966h-5.68l-5.379 25.716h18.059l1-4.75zm287.317 27.659h3.124c0-5.492-4.241-7.959-9.433-7.959-8.02 0-12.887 6.796-12.887 14.488 0 6.562 3.654 10.42 10.058 10.42 2.53 0 10.537-1.266 11.733-13.083h-10.229l-.52 2.663h7.495c-1.117 4.591-3.517 7.758-8.48 7.758-4.703 0-6.932-3.167-6.932-7.758 0-5.721 3.212-11.821 9.762-11.821 3.42 0 6.308 1.658 6.308 5.292z"/></g></svg>