<svg viewBox="0 0 1534 412" xmlns="http://www.w3.org/2000/svg" fill-rule="evenodd" clip-rule="evenodd" stroke-linejoin="round" stroke-miterlimit="2"><g fill-rule="nonzero"><path d="M111.4 305.108c0-24-20.2-35.2-45-35.2H0v139.6h37.2v-55.196H45c13.8 0 18.6 6 26.2 29.996l8 25.2H118l-13.6-38c-7-17-7.8-27.6-19.8-30.8v-.4c18-4.2 26.8-16.6 26.8-35.2zm-37.2 6.6c0 15.8-15.2 16.2-27.2 16.2h-9.8v-31.6H47c14.2 0 27.2 2.4 27.2 15.4zm62-41.8h37.2v139.6h-37.2zm198.4 69.2c0-54-34-69.2-82.6-69.2h-50.8v139.6H252c47.6 0 82.6-18.2 82.6-70.4zm-38.4.6c0 27.8-15.6 42.2-43.4 42.2h-14.4v-84.4h14.4c27.2 0 43.4 14.4 43.4 42.2zm62.4-69.8h37.2v139.6h-37.2zm65.6 139.6h34.2l-1.2-95.4h.4l48.8 95.4h46.2v-139.6h-34l.6 94.8h-.4l-47.2-94.8h-47.4v139.6zm284-81.6h-57.8v26.404h21.8v27.596c-3.4 1.6-8.2 2.4-13.2 2.4-27.2 0-46.6-16.6-46.6-44 0-32.6 24.8-45.2 55-45.2 8.8 0 22.4 2.2 34 9l3-30.4c-13.6-5.2-33-6.2-42.2-6.2-51.2 0-88.2 20.2-88.2 72.8 0 52.8 43 71.6 80.2 71.6 12.8 0 30.4-.4 54-6.4v-77.6zm322.422-22.6c0-24-19.4-35.4-45.4-35.4h-64.2v139.6h58.8c25 0 54.4-7 54.4-40.4 0-16.996-9.6-27-28.2-30.8v-.4c15.6-5.2 24.6-15 24.6-32.6zm-37.2 5c0 11.8-12.6 14.8-24.8 14.8h-10.4v-28.8h10.8c12.4 0 24.4 1.2 24.4 14zm3.6 56.6c0 14.2-14.2 16.2-27.8 16.2h-11v-32.8h11.4c12.8 0 27.4 1.4 27.4 16.6zm99.2 42.6h37.2v-52.6l51.2-87h-42.8l-27 56-27.4-56h-42.8l51.6 87v52.6zm127.596 0h37.2v-112h34.4v-27.6h-106v27.6h34.4v112zm86.2 0h100.6v-26.4h-63.4v-31.6h57.8v-26.4h-57.8v-28.8h61.2v-26.4h-98.4v139.6zm120.4-3.6c12.4 4 28.6 6 41.6 6 31 0 61.4-9.8 61.4-46 0-50.4-66-35.2-66-57.8 0-12.2 15.6-13 25-13 10.6 0 21.4 2 31 6.4l2.4-28.8c-9.4-3.2-22.6-5.2-36-5.2-28 0-60.8 9.2-60.8 42.8 0 50.8 66 34.4 66 60.4 0 11.2-11.2 13.6-23 13.6-15.4 0-28.8-4-38.4-9.2l-3.2 30.8z" fill="#43525a"/><path d="M874.126 279.496l-36.33-32.35 36.592-2.654-.262 35.004zm25.721-51.709l-25.459 16.705-9.812-28.105 35.27 11.4z" fill="#9f8f6e"/><path d="M837.797 247.146l26.779-30.759 9.812 28.105-36.591 2.654zm-3.717-29.171l3.717 29.17 26.779-30.758-30.496 1.588zm94.05-.35l-16.617-10.254-11.666 20.416 28.283-10.162z" fill="#9f8f6e"/><path d="M862.722 204.187l1.854 12.2-30.496 1.588 28.642-13.788zm27.046 1.592l10.079 22.008-35.271-11.4 25.192-10.608z" fill="#9f8f6e"/><path d="M862.722 204.187l1.854 12.2 25.192-10.608-27.046-1.592zm48.791 3.183l-21.745-1.591 10.079 22.008 11.666-20.416zm38.009-4.774l-20.438 2.566-17.57 2.209 16.616 10.254 21.392-15.03zm9.546-20.684l-5.838-21.037-3.708 41.72 9.546-20.683z" fill="#9f8f6e"/><path d="M971.622 192.875l.704-17.15-13.258 6.187 12.554 10.963z" fill="#9f8f6e"/><path d="M953.23 160.875l19.096 14.85-13.258 6.187-5.838-21.037zm48.975 27.666l-30.583 4.334.704-17.15 29.88 12.816z" fill="#9f8f6e"/><path d="M1025.543 181.646l-23.338 6.895-29.879-12.816 53.217 5.92zm16.437 5.041l1.417-18.387-17.854 13.346 16.437 5.041zm-13.52 31.554l13.52-31.554-6.362 50.913-7.159-19.359z" fill="#9f8f6e"/><path d="M1043.397 168.3l-71.071 7.425 53.217 5.92 17.854-13.345zM875.805 411.908l-30.408-.354.708-15.908 29.7 16.262zm-3.892-21.566l-25.808 5.304 29.7 16.262-3.892-21.566zm-48.791-37.834l48.791 37.834-25.808 5.304-22.983-43.138zm36.946-47.554l-30.584 8.663-6.362 38.891 36.946-47.554zm-56.746-18.208l56.746 18.208-30.584 8.663-26.162-26.871zm210.817-192.871l-15.913-1.859 8.22-17.5 7.693 19.359zM992.13 62.05l3.78 18.579 2.316 11.387 8.22-17.5L992.13 62.05z" fill="#9f8f6e"/><path d="M973.83 74.25l22.08 6.379-3.78-18.58-18.3 12.2zm-13.791-26.784l-.263 19.359 14.054 7.425-13.791-26.784zm27.316-1.325l-9.812-3.445-2.388-7.959 12.2 11.404z" fill="#9f8f6e"/><path d="M985.234 37.125l2.121 9.016-12.2-11.404 10.08 2.388zm32.884 47.2l3.708-7.425-9.28-5.567 5.572 12.992zm-57.546-57.013l-14.23-6.096 2.292-18.212 6.275 12.775 5.663 11.533zm58.075 219.567l.53-24.396 9.282-4.242-9.812 28.638z" fill="#9f8f6e"/><path d="M1035.618 237.6l-3.104-8.392-4.055-10.967-9.812 28.638 16.97-9.28zm-303.1 24.129l15.116 65.763-18.033-36.859 2.917-28.904zm36.329 102.363l-21.213-36.6 23.071 7.162-1.858 29.438zm-8.75 25.716l8.75-25.716 2.125 12.991-10.875 12.725zm23.337-42.162l10.871 17.766-22.008 28.109 11.137-45.875z" fill="#9f8f6e"/><path d="M737.822 391.933l22.275-2.125 12.2 3.713-34.475-1.588zm16.175-81.146l-3.713-39.512 38.717 56.217-35.004-16.705zM943.601 11.933l-28.108 24.13-6.809-11.313 34.917-12.817zM910.188 50.12l-3.712 32.35-16.175 9.459 19.887-41.808zm-4.508 40.305l-9.279 32.087-15.292-1.237 24.571-30.85zm-.267-63.642l-39.775 22.275 25.017 8.93 14.758-31.205zm-7.953 30.054l-14.23 43.58-34.83-.092 49.06-43.488zm-6.276 39.513l-28.108 34.825-31.467 3.891 59.575-38.716zM954.472 0l6.1 27.312-5.663-11.533-.437-15.78zm-151.15 286.746l-19.092-45.434 3.713 30.759 15.379 14.675zm125.762-81.584l24.146-44.287-3.708 41.72-20.438 2.567zm60.659-50.033l-18.563-.796 9.859-13.667 10.029-13.912-1.325 28.375z" fill="#9f8f6e"/><path d="M964.814 99.708l16.225 40.958 10.029-13.912-26.254-27.046zm3.979-85.388l31.82 24.663-10.074-24.93-21.746.267zM819.23 187.746l-36.062 35.27 20.154-6.629 15.908-28.641zm-36.062 51.974l-32.884 14.85 9.196 7.426 23.688-22.275z" fill="#9f8f6e"/><path d="M758.772 235.829l-26.254 25.9 17.766-7.158 8.488-18.742zM937.326 11.312l-19.8-10.25-28.642 17.325 48.442-7.075z" fill="#9f8f6e"/></g></svg>