<svg width="709" height="348" viewBox="0 0 709 348" xmlns="http://www.w3.org/2000/svg"><path d="M346.271 130.987l-54.326-3.712-41.104-17.805L295.667 0l50.037 130.3.284.5z" fill="#313537"/><path d="M427.125 147.738l-38.404-48.492 30.429-57.45 37.296 90.796z" fill="#414546"/><path d="M275.204 176.083l-24.363-66.613 41.104 17.805 18.425 20.642z" fill="#14191c"/><path d="M424.113 176.083h-59.705l62.717-28.346 29.321-15.145z" fill="#222629"/><path d="M364.408 176.083h-89.204l35.166-28.166z" fill="#070a0f"/><path d="M364.408 176.083l-54.038-28.166-18.424-20.642 54.325 3.712.083.05.079-.012z" fill="#222629"/><path d="M364.408 176.083l-17.975-45.058.7-.117 40.571-30.208 39.421 47.037z" fill="#313537"/><path d="M347.487 127.541L295.667 0 419.15 41.796l-31.975 56.958zm41.234-28.296l-.042-.049 30.471-57.404v.004z" fill="#888b8c"/><path d="M427.125 147.738L387.704 100.7l-40.571 30.208-.7.117-.079.012-.083-.05-.283-.187-.284-.5L295.667 0l51.821 127.542 39.687-28.788 31.975-56.962-30.471 57.404.042.05z" fill="#f8eee3"/><path d="M92.008 306.492c0-18.6-14.45-29.23-29.896-36.871l-17.937-8.967c-6.809-3.487-11.292-6.479-11.292-14.283 0-7.808 6.313-11.792 14.946-11.792 7.642 0 17.77 2.988 25.412 9.633l14.946-21.095c-12.454-9.134-26.904-11.959-40.358-11.959-25.075 0-44.013 14.617-44.013 36.375 0 16.275 10.3 27.405 26.408 35.875l22.921 11.954c4.151 2.163 9.467 6.48 9.467 12.792 0 9.467-6.312 13.121-15.279 13.121-12.292 0-23.254-6.975-31.225-13.121L0 330.075c16.608 12.788 32.883 15.113 45.837 15.113 30.892 0 46.171-16.609 46.171-38.696zm99.534 37.366v-24.745h-50.821v-30.059h41.52v-23.583h-41.52v-28.4h46.833v-23.75h-76.067v130.537zm134.758 3.159V213.321h-29.229V285.4l-82.546-75.734v134.192h29.4v-73.074zm142.717-3.159l-64.442-136.517-63.942 136.517h31.059l13.454-29.725h39.362l13.45 29.725zm-53.146-50.821h-22.755l10.797-24.078zm196.442-55.966v-23.75h-83.375v23.75h27.07v106.787h29.234V237.071zm96.529 106.787v-24.745h-50.825v-30.059h41.521v-23.583h-41.521v-28.4h46.837v-23.75h-76.066v130.537zM518.504 219.263a5.941 5.941 0 00-5.942-5.938h-29.229a5.934 5.934 0 100 11.871v105.383c0 8.071 6.542 14.617 14.613 14.617 8.075 0 14.616-6.546 14.616-14.617V225.196a5.938 5.938 0 005.942-5.933z" fill="#d7dbdc"/></svg>