<svg width="709" height="140" viewBox="0 0 709 140" xmlns="http://www.w3.org/2000/svg"><path d="M92.008 99.492c0-18.6-14.45-29.23-29.896-36.871l-17.937-8.967c-6.809-3.487-11.292-6.479-11.292-14.283 0-7.808 6.313-11.792 14.946-11.792 7.642 0 17.77 2.988 25.412 9.633l14.946-21.095C75.733 6.983 61.283 4.158 47.829 4.158c-25.075 0-44.013 14.617-44.013 36.375 0 16.275 10.3 27.405 26.408 35.875l22.921 11.954c4.151 2.163 9.467 6.48 9.467 12.792 0 9.467-6.312 13.121-15.279 13.121-12.292 0-23.254-6.975-31.225-13.121L0 123.075c16.608 12.788 32.883 15.113 45.837 15.113 30.892 0 46.171-16.609 46.171-38.696zm99.534 37.366v-24.745h-50.821V82.054h41.52V58.471h-41.52v-28.4h46.833V6.321h-76.067v130.537zm134.758 3.159V6.321h-29.229V78.4L214.525 2.666v134.192h29.4V63.784zm142.717-3.159L404.575.341l-63.942 136.517h31.059l13.454-29.725h39.362l13.45 29.725zm-53.146-50.821h-22.755l10.797-24.078zm196.442-55.966V6.321h-83.375v23.75h27.07v106.787h29.234V30.071zm96.529 106.787v-24.745h-50.825V82.054h41.521V58.471h-41.521v-28.4h46.837V6.321h-76.066v130.537zM518.504 12.263a5.942 5.942 0 00-5.942-5.938h-29.229a5.934 5.934 0 100 11.871v105.383c0 8.071 6.542 14.617 14.613 14.617 8.075 0 14.616-6.546 14.616-14.617V18.196a5.938 5.938 0 005.942-5.933z" fill="#d7dbdc"/></svg>