<svg viewBox="0 0 709 348" xmlns="http://www.w3.org/2000/svg" fill-rule="evenodd" clip-rule="evenodd" stroke-linejoin="round" stroke-miterlimit="2"><g fill-rule="nonzero"><path d="M346.271 130.988l-54.325-3.713-41.104-17.804L295.667 0l50.037 130.3.284.5.283.188z" fill="#313537"/><path d="M427.125 147.738l-38.404-48.492 30.43-57.45 37.295 90.796-29.32 15.146z" fill="#414546"/><path d="M275.204 176.083l-24.362-66.612 41.104 17.804 18.425 20.642-35.167 28.166z" fill="#14191c"/><path d="M424.113 176.083h-59.704l62.716-28.345 29.321-15.146-32.333 43.491z" fill="#222629"/><path d="M364.409 176.083h-89.205l35.167-28.166 54.038 28.166z" fill="#070a0f"/><path d="M364.409 176.083l-54.038-28.166-18.425-20.642 54.325 3.713.083.05.08-.013 17.975 45.058z" fill="#222629"/><path d="M364.409 176.083l-17.975-45.058.7-.117 40.57-30.208 39.421 47.038-62.716 28.345z" fill="#313537"/><path d="M347.488 127.542L295.667 0 419.15 41.796l-31.975 56.958-39.687 28.788zm41.233-28.296l-.042-.05 30.471-57.404v.004l-30.429 57.45z" fill="#888b8c"/><path d="M427.125 147.738l-39.42-47.038-40.571 30.208-.7.117-.08.013-.083-.05-.283-.188-.284-.5L295.667 0l51.82 127.542 39.688-28.788 31.975-56.962-30.47 57.404.041.05 38.404 48.492z" fill="#f8eee3"/><path d="M92.008 306.492c0-18.6-14.45-29.23-29.895-36.87l-17.938-8.968c-6.808-3.487-11.292-6.479-11.292-14.283 0-7.808 6.313-11.792 14.946-11.792 7.642 0 17.771 2.988 25.413 9.634l14.946-21.096c-12.455-9.133-26.905-11.958-40.359-11.958-25.075 0-44.012 14.616-44.012 36.375 0 16.275 10.3 27.404 26.408 35.875l22.92 11.954c4.15 2.162 9.468 6.479 9.468 12.791 0 9.467-6.313 13.121-15.28 13.121-12.291 0-23.254-6.975-31.225-13.12L0 330.074c16.608 12.788 32.883 15.113 45.838 15.113 30.891 0 46.17-16.609 46.17-38.696zm99.534 37.367v-24.746H140.72v-30.059h41.52v-23.583h-41.52v-28.4h46.833v-23.75h-76.066v130.538h80.054zm134.758 3.158V213.32h-29.229v72.08l-82.546-75.734v134.192h29.4v-73.075l82.375 76.233zm142.717-3.158l-64.442-136.517-63.941 136.517h31.058l13.454-29.725h39.363l13.45 29.725h31.058zm-53.146-50.821h-22.754l10.796-24.08 11.958 24.08zm196.442-55.967v-23.75h-83.375v23.75h27.07v106.788h29.234V237.07h27.071zm96.53 106.788v-24.746h-50.826v-30.059h41.521v-23.583h-41.52v-28.4h46.837v-23.75h-76.067v130.538h80.054zM518.505 219.263a5.941 5.941 0 00-5.942-5.938h-29.23a5.935 5.935 0 100 11.87V330.58c0 8.071 6.542 14.617 14.613 14.617 8.075 0 14.617-6.546 14.617-14.617V225.196a5.938 5.938 0 005.942-5.933z" fill="#160f0a"/></g></svg>